<svg id="burstPink" xmlns="http://www.w3.org/2000/svg" viewBox="0 0 69.1 128.14"><defs><style>.cls-1{fill:#fadacd;}</style></defs><title>burst-pink</title><path class="cls-1" d="M155.85,399.44v30.44c0,7.72,12,7.73,12,0V399.44c0-7.72-12-7.73-12,0Z" transform="translate(-98.75 -393.64)"/><path class="cls-1" d="M155.85,485.55V516c0,7.72,12,7.73,12,0V485.55c0-7.72-12-7.73-12,0Z" transform="translate(-98.75 -393.64)"/><path class="cls-1" d="M135,451.05H104.55c-7.72,0-7.73,12,0,12H135c7.72,0,7.73-12,0-12Z" transform="translate(-98.75 -393.64)"/><path class="cls-1" d="M136,465.26l-26.36,15.22c-6.69,3.86-.65,14.23,6,10.36L142,475.62c6.69-3.86.65-14.23-6.05-10.36Z" transform="translate(-98.75 -393.64)"/><path class="cls-1" d="M143.79,478.12l-15.22,26.35c-3.87,6.7,6.5,12.75,10.36,6.06l15.22-26.36c3.87-6.7-6.5-12.75-10.36-6.05Z" transform="translate(-98.75 -393.64)"/><path class="cls-1" d="M141.34,439.44,115,424.22c-6.7-3.87-12.75,6.5-6.06,10.36l26.36,15.22c6.7,3.87,12.75-6.5,6.06-10.36Z" transform="translate(-98.75 -393.64)"/><path class="cls-1" d="M153.45,430.89l-15.21-26.36c-3.86-6.69-14.24-.65-10.37,6.05l15.22,26.36c3.86,6.69,14.24.65,10.36-6.05Z" transform="translate(-98.75 -393.64)"/></svg>