<svg id="lightbulb" xmlns="http://www.w3.org/2000/svg" viewBox="0 0 106.07 198.33"><defs><style>.cls-1,.cls-2{fill:#fadacd;}.cls-2{stroke:#fadacd;stroke-miterlimit:10;}</style></defs><title>lightbulb</title><path class="cls-1" d="M166.24,123.7,249,92.1,261,87.54c6.7-2.56,3.79-13.44-3-10.85l-82.77,31.6-11.95,4.56c-6.7,2.56-3.79,13.44,3,10.85Z" transform="translate(-159.45 -63.31)"/><path class="cls-1" d="M166.4,146.52l83.21-31.76,12-4.59c6.7-2.56,3.79-13.44-3-10.85l-83.2,31.76-12,4.59c-6.7,2.56-3.79,13.44,3,10.85Z" transform="translate(-159.45 -63.31)"/><path class="cls-1" d="M166.5,168.55l83.21-31.76,12-4.59c6.69-2.56,3.79-13.44-3-10.85l-83.21,31.76-12,4.59c-6.69,2.56-3.79,13.44,3,10.85Z" transform="translate(-159.45 -63.31)"/><path class="cls-1" d="M179.06,97.29l59.56-22.74c6.7-2.56,3.79-13.44-3-10.85L176.07,86.44c-6.7,2.55-3.79,13.43,3,10.85Z" transform="translate(-159.45 -63.31)"/><path class="cls-1" d="M257,156c-11.77,4.54-22.75,12.44-24.84,25.69a34,34,0,0,0,3.08,19.88c3.14,6.52,12.85.82,9.71-5.68-.73-1.52.3,1-.24-.57-.31-.91-.63-1.81-.88-2.74a20.52,20.52,0,0,1-.78-7.85c.87-9.27,8.9-14.78,16.94-17.89,6.69-2.58,3.78-13.46-3-10.84Z" transform="translate(-159.45 -63.31)"/><rect class="cls-2" x="9.98" y="147.48" width="87.82" height="8.13"/><path class="cls-2" d="M14.3,161.17h79.2a0,0,0,0,1,0,0v5a3.11,3.11,0,0,1-3.11,3.11h-73a3.13,3.13,0,0,1-3.13-3.13v-5A0,0,0,0,1,14.3,161.17Z"/><path class="cls-2" d="M23.21,174.4H84.5a1.85,1.85,0,0,1,1.85,1.85v3.17a3.11,3.11,0,0,1-3.11,3.11H24.57a3.13,3.13,0,0,1-3.13-3.13v-3.24A1.77,1.77,0,0,1,23.21,174.4Z"/><path class="cls-2" d="M27.71,187.62H80a1.85,1.85,0,0,1,1.85,1.85v0a8.36,8.36,0,0,1-8.36,8.36H34.38a8.44,8.44,0,0,1-8.44-8.44v0a1.77,1.77,0,0,1,1.77-1.77Z"/><path class="cls-1" d="M163.94,169.2c8.05,3.1,16.08,8.61,16.94,17.89a20.41,20.41,0,0,1-.77,7.85c-.25.92-.57,1.82-.88,2.73-.53,1.55.46-.9-.25.58-3.13,6.49,6.57,12.2,9.72,5.67A33.92,33.92,0,0,0,191.77,184c-2.09-13.25-13.07-21.15-24.84-25.69-6.76-2.61-9.69,8.26-3,10.85Z" transform="translate(-159.45 -63.31)"/></svg>