<svg id="Layer_1" data-name="Layer 1" xmlns="http://www.w3.org/2000/svg" viewBox="0 0 504.12 364"><defs><style>.cls-1{fill:#8cc641;}.cls-2,.cls-5,.cls-9{font-size:21px;}.cls-2,.cls-5{fill:#fff;}.cls-2{font-family:MyriadPro-Regular, Myriad Pro;}.cls-3{fill:#f7b62c;}.cls-4{fill:#ee674a;}.cls-10,.cls-18,.cls-5{font-family:ArialMT, Arial;}.cls-6{letter-spacing:-0.13em;}.cls-18,.cls-7,.cls-8{font-size:14px;}.cls-7{fill:#231f20;}.cls-7,.cls-8,.cls-9{font-family:ArialNarrow, Arial Narrow;}.cls-8,.cls-9{fill:#ef4136;}.cls-10{font-size:16px;}.cls-10,.cls-12,.cls-18{fill:#414042;}.cls-11{letter-spacing:-0.02em;}.cls-12{font-size:19px;font-family:Arial-BoldMT, Arial;font-weight:700;}.cls-13{letter-spacing:-0.09em;}.cls-14{letter-spacing:0em;}.cls-15{fill:#ed674a;}.cls-16{fill:none;stroke:#58595b;stroke-miterlimit:10;stroke-width:4px;}.cls-17{fill:#58595b;}.cls-19{letter-spacing:-0.06em;}</style></defs><title>weekdays</title><circle class="cls-1" cx="119.8" cy="167.94" r="96.5"/><text class="cls-2" transform="translate(439.67 172.84)">A.M.</text><path class="cls-3" d="M165.25,502.77l95.55,24.42a98.59,98.59,0,0,1-68.93,70.51Z" transform="translate(-46.42 -336.84)"/><path class="cls-3" d="M169,503.76,78.81,463.84a98.59,98.59,0,0,0,10.54,98Z" transform="translate(-46.42 -336.84)"/><path class="cls-4" d="M191.27,597.4a96.61,96.61,0,0,1-118.8-67.33l95.15-28.47Z" transform="translate(-46.42 -336.84)"/><circle class="cls-1" cx="383.73" cy="167.77" r="96.5"/><path class="cls-4" d="M429.44,502.6,525,527a98.61,98.61,0,0,1-68.93,70.51Z" transform="translate(-46.42 -336.84)"/><path class="cls-4" d="M432.4,502.11l-93.21-32.2a98.58,98.58,0,0,0,18.74,96.81Z" transform="translate(-46.42 -336.84)"/><path class="cls-3" d="M455.45,597.23a96.61,96.61,0,0,1-118.8-67.33l95.15-28.47Z" transform="translate(-46.42 -336.84)"/><text class="cls-5" transform="translate(173.03 172.85)">A.M.</text><text class="cls-5" transform="translate(432.67 172.84)">A.M.</text><text class="cls-5" transform="translate(295.27 172.84)"><tspan class="cls-6">P</tspan><tspan x="11.3" y="0">.M.</tspan></text><text class="cls-5" transform="translate(31.15 172.85)"><tspan class="cls-6">P</tspan><tspan x="11.3" y="0">.M.</tspan></text><text class="cls-7" transform="translate(408.58 74.4) rotate(16.64)">1</text><text class="cls-7" transform="matrix(0.94, 0.33, -0.33, 0.94, 414.58, 76.23)"> </text><text class="cls-7" transform="matrix(0.93, 0.36, -0.36, 0.93, 417.5, 77.27)"> </text><text class="cls-7" transform="matrix(0.92, 0.39, -0.39, 0.92, 420.4, 78.39)"> </text><text class="cls-7" transform="translate(423.28 79.62) rotate(25.01)"> </text><text class="cls-7" transform="translate(426.09 80.93) rotate(26.85)"> </text><text class="cls-7" transform="translate(428.88 82.34) rotate(28.71)"> </text><text class="cls-7" transform="translate(431.59 83.78) rotate(31.48)">2</text><text class="cls-7" transform="translate(436.91 87.08) rotate(34.24)"> </text><text class="cls-7" transform="translate(439.49 88.83) rotate(36.08)"> </text><text class="cls-7" transform="matrix(0.79, 0.61, -0.61, 0.79, 442.01, 90.66)"> </text><text class="cls-7" transform="translate(444.46 92.58) rotate(39.75)"> </text><text class="cls-7" transform="translate(446.87 94.58) rotate(41.6)"> </text><text class="cls-7" transform="translate(449.21 96.65) rotate(43.45)"> </text><text class="cls-7" transform="matrix(0.69, 0.72, -0.72, 0.69, 451.47, 98.74)">3</text><text class="cls-7" transform="translate(455.78 103.29) rotate(48.96)"> </text><text class="cls-7" transform="translate(457.83 105.63) rotate(50.8)"> </text><text class="cls-7" transform="translate(459.8 108.05) rotate(52.65)"> </text><text class="cls-7" transform="translate(461.69 110.52) rotate(54.49)"> </text><text class="cls-7" transform="matrix(0.55, 0.83, -0.83, 0.55, 463.49, 113.05)"> </text><text class="cls-7" transform="translate(465.23 115.66) rotate(58.2)"> </text><text class="cls-7" transform="translate(466.89 118.25) rotate(60.98)">4</text><text class="cls-7" transform="translate(469.89 123.73) rotate(63.76)"> </text><text class="cls-7" transform="translate(471.27 126.53) rotate(65.62)"> </text><text class="cls-7" transform="translate(472.55 129.35) rotate(67.48)"> </text><text class="cls-7" transform="translate(473.76 132.26) rotate(69.36)"> </text><text class="cls-7" transform="matrix(0.32, 0.95, -0.95, 0.32, 474.85, 135.16)"> </text><text class="cls-7" transform="translate(475.85 138.1) rotate(73.07)"> </text><text class="cls-7" transform="translate(476.79 141.05) rotate(75.87)">5</text><text class="cls-7" transform="matrix(0.2, 0.98, -0.98, 0.2, 478.28, 147.12)"> </text><text class="cls-7" transform="matrix(0.17, 0.99, -0.99, 0.17, 478.9, 150.18)"> </text><text class="cls-7" transform="translate(479.42 153.25) rotate(82.34)"> </text><text class="cls-7" transform="matrix(0.1, 0.99, -0.99, 0.1, 479.83, 156.34)"> </text><text class="cls-7" transform="translate(480.15 159.46) rotate(86.01)"> </text><text class="cls-7" transform="translate(480.37 162.53) rotate(88.05)"> </text><text class="cls-7" transform="translate(480.53 165.62) rotate(90.55)">6</text><text class="cls-7" transform="translate(480.43 171.89) rotate(93.31)"> </text><text class="cls-7" transform="translate(480.25 175.01) rotate(95.16)"> </text><text class="cls-7" transform="translate(479.97 178.1) rotate(97)"> </text><text class="cls-7" transform="translate(479.59 181.2) rotate(98.87)"> </text><text class="cls-8" transform="translate(479.12 184.27) rotate(100.72)"> </text><text class="cls-8" transform="translate(478.53 187.35) rotate(102.6)"> </text><text class="cls-9" transform="translate(477.98 190.34) rotate(106.33)">7</text><text class="cls-7" transform="translate(475.24 199.35) rotate(110.05)"> </text><text class="cls-7" transform="translate(474.17 202.28) rotate(111.91)"> </text><text class="cls-7" transform="translate(473.01 205.17) rotate(113.77)"> </text><text class="cls-7" transform="translate(471.76 208.01) rotate(115.61)"> </text><text class="cls-7" transform="matrix(-0.46, 0.89, -0.89, -0.46, 470.4, 210.83)"> </text><text class="cls-7" transform="matrix(-0.5, 0.86, -0.86, -0.5, 469.03, 213.57)">8</text><text class="cls-7" transform="translate(465.84 218.97) rotate(123.01)"> </text><text class="cls-7" transform="matrix(-0.57, 0.82, -0.82, -0.57, 464.14, 221.59)"> </text><text class="cls-7" transform="translate(462.36 224.14) rotate(126.7)"> </text><text class="cls-7" transform="translate(460.5 226.64) rotate(128.54)"> </text><text class="cls-7" transform="translate(458.56 229.08) rotate(130.37)"> </text><text class="cls-7" transform="translate(456.6 231.44) rotate(133.13)">9</text><text class="cls-7" transform="translate(452.3 235.99) rotate(135.88)"> </text><text class="cls-7" transform="translate(450.06 238.16) rotate(137.72)"> </text><text class="cls-7" transform="translate(447.76 240.26) rotate(139.56)"> </text><text class="cls-7" transform="translate(445.39 242.28) rotate(141.4)"> </text><text class="cls-7" transform="matrix(-0.8, 0.6, -0.6, -0.8, 442.95, 244.23)"> </text><text class="cls-7" transform="translate(440.49 246.11) rotate(146.03)">1</text><text class="cls-7" transform="translate(435.33 249.6) rotate(149.74)">0</text><text class="cls-7" transform="translate(429.92 252.71) rotate(152.51)"> </text><text class="cls-7" transform="translate(427.15 254.15) rotate(154.37)"> </text><text class="cls-7" transform="matrix(-0.92, 0.4, -0.4, -0.92, 424.33, 255.51)"> </text><text class="cls-7" transform="translate(421.5 256.76) rotate(158.1)"> </text><text class="cls-7" transform="translate(418.59 257.93) rotate(159.97)"> </text><text class="cls-9" transform="translate(415.76 259.07) rotate(163.7)">1</text><text class="cls-9" transform="matrix(-0.98, 0.2, -0.2, -0.98, 408.01, 261.41)">1</text><text class="cls-8" transform="translate(398.74 263.19) rotate(172.23)"> </text><text class="cls-7" transform="matrix(-0.99, 0.1, -0.1, -0.99, 395.65, 263.61)"> </text><text class="cls-7" transform="matrix(-1, 0.07, -0.07, -1, 392.55, 263.93)"> </text><text class="cls-7" transform="matrix(-1, 0.03, -0.03, -1, 389.47, 264.17)"> </text><text class="cls-7" transform="matrix(-1, 0.01, -0.01, -1, 386.32, 264.28)"> </text><text class="cls-7" transform="translate(383.22 264.31) rotate(-178.65)"> </text><text class="cls-7" transform="translate(380.1 264.24) rotate(-176.81)"> </text><text class="cls-7" transform="translate(376.98 264.07) rotate(-174.96)"> </text><text class="cls-7" transform="translate(373.89 263.8) rotate(-173.11)"> </text><text class="cls-7" transform="matrix(-0.99, -0.15, 0.15, -0.99, 370.79, 263.42)"> </text><text class="cls-7" transform="matrix(-0.98, -0.18, 0.18, -0.98, 367.71, 262.95)"> </text><text class="cls-7" transform="translate(364.67 262.38) rotate(-167.54)"> </text><text class="cls-7" transform="translate(361.65 261.75) rotate(-164.74)">1</text><text class="cls-7" transform="translate(355.6 260.06) rotate(-161.93)"> </text><text class="cls-7" transform="matrix(-0.94, -0.34, 0.34, -0.94, 352.66, 259.11)"> </text><text class="cls-7" transform="translate(349.73 258.05) rotate(-158.22)"> </text><text class="cls-7" transform="translate(346.84 256.89) rotate(-156.36)"> </text><text class="cls-7" transform="translate(343.96 255.64) rotate(-154.5)"> </text><text class="cls-7" transform="matrix(-0.89, -0.46, 0.46, -0.89, 341.16, 254.3)"> </text><text class="cls-7" transform="matrix(-0.86, -0.5, 0.5, -0.86, 338.39, 252.92)">2</text><text class="cls-7" transform="matrix(-0.84, -0.54, 0.54, -0.84, 333.01, 249.75)"> </text><text class="cls-7" transform="translate(330.39 248.06) rotate(-145.27)"> </text><text class="cls-7" transform="matrix(-0.8, -0.6, 0.6, -0.8, 327.83, 246.29)"> </text><text class="cls-7" transform="matrix(-0.78, -0.62, 0.62, -0.78, 325.33, 244.43)"> </text><text class="cls-7" transform="matrix(-0.76, -0.65, 0.65, -0.76, 322.88, 242.49)"> </text><text class="cls-7" transform="translate(320.5 240.48) rotate(-137.91)"> </text><text class="cls-7" transform="translate(318.18 238.44) rotate(-135.14)">3</text><text class="cls-7" transform="matrix(-0.67, -0.74, 0.74, -0.67, 313.77, 234)"> </text><text class="cls-7" transform="matrix(-0.65, -0.76, 0.76, -0.65, 311.66, 231.7)"> </text><text class="cls-7" transform="matrix(-0.63, -0.78, 0.78, -0.63, 309.64, 229.33)"> </text><text class="cls-7" transform="translate(307.68 226.89) rotate(-126.86)"> </text><text class="cls-7" transform="translate(305.82 224.41) rotate(-125.01)"> </text><text class="cls-7" transform="translate(304.03 221.86) rotate(-123.17)"> </text><text class="cls-7" transform="translate(302.32 219.31) rotate(-120.39)">4</text><text class="cls-7" transform="translate(299.17 213.88) rotate(-117.6)"> </text><text class="cls-7" transform="matrix(-0.43, -0.9, 0.9, -0.43, 297.73, 211.12)"> </text><text class="cls-7" transform="translate(296.38 208.32) rotate(-113.88)"> </text><text class="cls-7" transform="translate(295.11 205.47) rotate(-112.02)"> </text><text class="cls-7" transform="translate(293.95 202.59) rotate(-110.15)"> </text><text class="cls-7" transform="translate(292.87 199.65) rotate(-108.29)"> </text><text class="cls-9" transform="matrix(-0.25, -0.97, 0.97, -0.25, 291.81, 196.81)">5</text><text class="cls-9" transform="matrix(-0.18, -0.98, 0.98, -0.18, 289.53, 187.68)"> </text><text class="cls-9" transform="translate(288.68 183.09) rotate(-97.63)"> </text><text class="cls-7" transform="matrix(-0.09, -1, 1, -0.09, 288.07, 178.42)"> </text><text class="cls-7" transform="translate(287.79 175.33) rotate(-93.81)"> </text><text class="cls-7" transform="translate(287.59 172.22) rotate(-91.7)"> </text><text class="cls-7" transform="translate(287.5 169.1) rotate(-89.87)"> </text><text class="cls-7" transform="translate(287.5 165.99) rotate(-88.04)"> </text><text class="cls-7" transform="matrix(0.08, -1, 1, 0.08, 287.57, 162.91)">6</text><text class="cls-7" transform="translate(288.12 156.66) rotate(-82.49)"> </text><text class="cls-7" transform="translate(288.52 153.59) rotate(-80.64)"> </text><text class="cls-7" transform="translate(289.03 150.5) rotate(-78.77)"> </text><text class="cls-7" transform="matrix(0.23, -0.97, 0.97, 0.23, 289.64, 147.45)"> </text><text class="cls-7" transform="translate(290.34 144.41) rotate(-75.05)"> </text><text class="cls-7" transform="translate(291.14 141.41) rotate(-73.19)"> </text><text class="cls-7" transform="translate(292.05 138.41) rotate(-71.31)"> </text><text class="cls-7" transform="translate(293.03 135.49) rotate(-69.47)"> </text><text class="cls-9" transform="matrix(0.41, -0.91, 0.91, 0.41, 294, 132.59)">7</text><text class="cls-7" transform="matrix(0.47, -0.88, 0.88, 0.47, 297.96, 124.04)"> </text><text class="cls-7" transform="translate(299.42 121.29) rotate(-60.19)"> </text><text class="cls-7" transform="matrix(0.52, -0.85, 0.85, 0.52, 300.97, 118.58)"> </text><text class="cls-7" transform="translate(302.61 115.92) rotate(-56.49)"> </text><text class="cls-7" transform="matrix(0.58, -0.82, 0.82, 0.58, 304.33, 113.32)"> </text><text class="cls-7" transform="translate(306.07 110.79) rotate(-51.89)">8</text><text class="cls-7" transform="matrix(0.65, -0.76, 0.76, 0.65, 309.97, 105.88)"> </text><text class="cls-7" transform="translate(312 103.53) rotate(-47.3)"> </text><text class="cls-7" transform="translate(314.11 101.24) rotate(-45.47)"> </text><text class="cls-7" transform="matrix(0.72, -0.69, 0.69, 0.72, 316.29, 99.02)"> </text><text class="cls-7" transform="translate(318.55 96.87) rotate(-41.79)"> </text><text class="cls-7" transform="matrix(0.78, -0.63, 0.63, 0.78, 320.82, 94.79)">9</text><text class="cls-7" transform="matrix(0.81, -0.59, 0.59, 0.81, 325.72, 90.87)"> </text><text class="cls-7" transform="matrix(0.83, -0.56, 0.56, 0.83, 328.24, 89.02)"> </text><text class="cls-7" transform="translate(330.8 87.26) rotate(-32.55)"> </text><text class="cls-7" transform="translate(333.43 85.58) rotate(-30.7)"> </text><text class="cls-7" transform="matrix(0.88, -0.48, 0.48, 0.88, 336.1, 83.99)"> </text><text class="cls-7" transform="translate(338.79 82.46) rotate(-26.05)">1</text><text class="cls-7" transform="translate(344.38 79.72) rotate(-22.32)">0</text><text class="cls-7" transform="translate(350.19 77.38) rotate(-19.53)"> </text><text class="cls-7" transform="matrix(0.95, -0.3, 0.3, 0.95, 353.13, 76.33)"> </text><text class="cls-7" transform="matrix(0.96, -0.27, 0.27, 0.96, 356.09, 75.39)"> </text><text class="cls-7" transform="translate(359.08 74.54) rotate(-13.95)"> </text><text class="cls-7" transform="matrix(0.98, -0.19, 0.19, 0.98, 362.07, 73.76)">1</text><text class="cls-7" transform="matrix(0.99, -0.14, 0.14, 0.99, 367.38, 72.68)">1</text><text class="cls-7" transform="translate(373.57 71.85) rotate(-5.21)"> </text><text class="cls-7" transform="translate(376.71 71.58) rotate(-3.81)"> </text><text class="cls-7" transform="matrix(1, -0.03, 0.03, 1, 379.78, 71.38)"> </text><text class="cls-7" transform="translate(382.91 71.29) rotate(0.25)"> </text><text class="cls-7" transform="matrix(1, 0.04, -0.04, 1, 386.03, 71.31)"> </text><text class="cls-7" transform="translate(144.69 74.54) rotate(16.64)">1</text><text class="cls-7" transform="matrix(0.94, 0.33, -0.33, 0.94, 150.69, 76.37)"> </text><text class="cls-7" transform="matrix(0.93, 0.36, -0.36, 0.93, 153.62, 77.4)"> </text><text class="cls-7" transform="matrix(0.92, 0.39, -0.39, 0.92, 156.52, 78.53)"> </text><text class="cls-7" transform="translate(159.39 79.76) rotate(25.01)"> </text><text class="cls-7" transform="translate(162.2 81.07) rotate(26.85)"> </text><text class="cls-7" transform="translate(164.99 82.48) rotate(28.71)"> </text><text class="cls-7" transform="translate(167.71 83.92) rotate(31.48)">2</text><text class="cls-7" transform="translate(173.02 87.22) rotate(34.24)"> </text><text class="cls-7" transform="translate(175.6 88.97) rotate(36.08)"> </text><text class="cls-7" transform="matrix(0.79, 0.61, -0.61, 0.79, 178.12, 90.8)"> </text><text class="cls-7" transform="translate(180.57 92.71) rotate(39.75)"> </text><text class="cls-7" transform="translate(182.98 94.71) rotate(41.6)"> </text><text class="cls-7" transform="translate(185.32 96.79) rotate(43.45)"> </text><text class="cls-7" transform="matrix(0.69, 0.72, -0.72, 0.69, 187.58, 98.87)">3</text><text class="cls-7" transform="translate(191.89 103.42) rotate(48.96)"> </text><text class="cls-7" transform="translate(193.94 105.77) rotate(50.8)"> </text><text class="cls-7" transform="translate(195.91 108.19) rotate(52.65)"> </text><text class="cls-7" transform="translate(197.8 110.66) rotate(54.49)"> </text><text class="cls-7" transform="matrix(0.55, 0.83, -0.83, 0.55, 199.61, 113.19)"> </text><text class="cls-7" transform="translate(201.34 115.79) rotate(58.2)"> </text><text class="cls-7" transform="translate(203 118.39) rotate(60.98)">4</text><text class="cls-7" transform="translate(206 123.87) rotate(63.76)"> </text><text class="cls-7" transform="translate(207.38 126.67) rotate(65.62)"> </text><text class="cls-7" transform="translate(208.66 129.49) rotate(67.48)"> </text><text class="cls-7" transform="translate(209.87 132.39) rotate(69.36)"> </text><text class="cls-7" transform="matrix(0.32, 0.95, -0.95, 0.32, 210.96, 135.29)"> </text><text class="cls-7" transform="translate(211.97 138.24) rotate(73.07)"> </text><text class="cls-7" transform="translate(212.91 141.18) rotate(75.87)">5</text><text class="cls-7" transform="matrix(0.2, 0.98, -0.98, 0.2, 214.4, 147.26)"> </text><text class="cls-7" transform="matrix(0.17, 0.99, -0.99, 0.17, 215.01, 150.32)"> </text><text class="cls-7" transform="translate(215.53 153.39) rotate(82.34)"> </text><text class="cls-7" transform="matrix(0.1, 0.99, -0.99, 0.1, 215.94, 156.47)"> </text><text class="cls-7" transform="translate(216.26 159.59) rotate(86.01)"> </text><text class="cls-7" transform="translate(216.49 162.67) rotate(88.05)"> </text><text class="cls-7" transform="translate(216.64 165.75) rotate(90.55)">6</text><text class="cls-7" transform="translate(216.54 172.03) rotate(93.31)"> </text><text class="cls-7" transform="translate(216.36 175.14) rotate(95.16)"> </text><text class="cls-7" transform="translate(216.09 178.23) rotate(97)"> </text><text class="cls-7" transform="translate(215.71 181.33) rotate(98.87)"> </text><text class="cls-8" transform="translate(215.23 184.41) rotate(100.72)"> </text><text class="cls-8" transform="translate(214.65 187.49) rotate(102.6)"> </text><text class="cls-9" transform="translate(214.09 190.48) rotate(106.33)">7</text><text class="cls-7" transform="translate(211.35 199.49) rotate(110.05)"> </text><text class="cls-7" transform="translate(210.28 202.42) rotate(111.91)"> </text><text class="cls-7" transform="translate(209.12 205.3) rotate(113.77)"> </text><text class="cls-7" transform="translate(207.87 208.14) rotate(115.61)"> </text><text class="cls-7" transform="matrix(-0.46, 0.89, -0.89, -0.46, 206.52, 210.97)"> </text><text class="cls-7" transform="matrix(-0.5, 0.86, -0.86, -0.5, 205.14, 213.7)">8</text><text class="cls-7" transform="translate(201.95 219.11) rotate(123.01)"> </text><text class="cls-7" transform="matrix(-0.57, 0.82, -0.82, -0.57, 200.25, 221.72)"> </text><text class="cls-7" transform="translate(198.47 224.28) rotate(126.7)"> </text><text class="cls-7" transform="translate(196.61 226.78) rotate(128.54)"> </text><text class="cls-7" transform="translate(194.68 229.21) rotate(130.37)"> </text><text class="cls-7" transform="translate(192.72 231.58) rotate(133.13)">9</text><text class="cls-7" transform="translate(188.41 236.13) rotate(135.88)"> </text><text class="cls-7" transform="translate(186.17 238.3) rotate(137.72)"> </text><text class="cls-7" transform="translate(183.87 240.39) rotate(139.56)"> </text><text class="cls-7" transform="translate(181.5 242.42) rotate(141.4)"> </text><text class="cls-7" transform="matrix(-0.8, 0.6, -0.6, -0.8, 179.06, 244.36)"> </text><text class="cls-7" transform="translate(176.61 246.25) rotate(146.03)">1</text><text class="cls-7" transform="translate(171.44 249.74) rotate(149.74)">0</text><text class="cls-7" transform="translate(166.03 252.85) rotate(152.51)"> </text><text class="cls-7" transform="translate(163.26 254.29) rotate(154.37)"> </text><text class="cls-7" transform="matrix(-0.92, 0.4, -0.4, -0.92, 160.44, 255.64)"> </text><text class="cls-7" transform="translate(157.61 256.89) rotate(158.1)"> </text><text class="cls-7" transform="translate(154.71 258.06) rotate(159.97)"> </text><text class="cls-9" transform="translate(151.88 259.21) rotate(163.7)">1</text><text class="cls-9" transform="matrix(-0.98, 0.2, -0.2, -0.98, 144.12, 261.54)">1</text><text class="cls-8" transform="translate(134.85 263.32) rotate(172.23)"> </text><text class="cls-7" transform="matrix(-0.99, 0.1, -0.1, -0.99, 131.77, 263.75)"> </text><text class="cls-7" transform="matrix(-1, 0.07, -0.07, -1, 128.67, 264.07)"> </text><text class="cls-7" transform="matrix(-1, 0.03, -0.03, -1, 125.58, 264.3)"> </text><text class="cls-7" transform="matrix(-1, 0.01, -0.01, -1, 122.44, 264.42)"> </text><text class="cls-7" transform="translate(119.33 264.45) rotate(-178.65)"> </text><text class="cls-7" transform="translate(116.21 264.38) rotate(-176.81)"> </text><text class="cls-7" transform="translate(113.1 264.2) rotate(-174.96)"> </text><text class="cls-7" transform="translate(110 263.93) rotate(-173.11)"> </text><text class="cls-7" transform="matrix(-0.99, -0.15, 0.15, -0.99, 106.9, 263.56)"> </text><text class="cls-7" transform="matrix(-0.98, -0.18, 0.18, -0.98, 103.83, 263.08)"> </text><text class="cls-7" transform="translate(100.78 262.51) rotate(-167.54)"> </text><text class="cls-7" transform="translate(97.76 261.89) rotate(-164.74)">1</text><text class="cls-7" transform="translate(91.71 260.2) rotate(-161.93)"> </text><text class="cls-7" transform="matrix(-0.94, -0.34, 0.34, -0.94, 88.77, 259.24)"> </text><text class="cls-7" transform="translate(85.84 258.18) rotate(-158.22)"> </text><text class="cls-7" transform="translate(82.95 257.03) rotate(-156.36)"> </text><text class="cls-7" transform="translate(80.07 255.77) rotate(-154.5)"> </text><text class="cls-7" transform="matrix(-0.89, -0.46, 0.46, -0.89, 77.28, 254.44)"> </text><text class="cls-7" transform="matrix(-0.86, -0.5, 0.5, -0.86, 74.51, 253.05)">2</text><text class="cls-7" transform="matrix(-0.84, -0.54, 0.54, -0.84, 69.12, 249.89)"> </text><text class="cls-7" transform="translate(66.51 248.2) rotate(-145.27)"> </text><text class="cls-7" transform="matrix(-0.8, -0.6, 0.6, -0.8, 63.94, 246.42)"> </text><text class="cls-7" transform="matrix(-0.78, -0.62, 0.62, -0.78, 61.44, 244.57)"> </text><text class="cls-7" transform="matrix(-0.76, -0.65, 0.65, -0.76, 58.99, 242.63)"> </text><text class="cls-7" transform="translate(56.61 240.62) rotate(-137.91)"> </text><text class="cls-7" transform="translate(54.29 238.58) rotate(-135.14)">3</text><text class="cls-7" transform="matrix(-0.67, -0.74, 0.74, -0.67, 49.88, 234.13)"> </text><text class="cls-7" transform="matrix(-0.65, -0.76, 0.76, -0.65, 47.78, 231.83)"> </text><text class="cls-7" transform="matrix(-0.63, -0.78, 0.78, -0.63, 45.75, 229.46)"> </text><text class="cls-7" transform="translate(43.8 227.03) rotate(-126.86)"> </text><text class="cls-7" transform="translate(41.93 224.54) rotate(-125.01)"> </text><text class="cls-7" transform="translate(40.15 222) rotate(-123.17)"> </text><text class="cls-7" transform="translate(38.43 219.45) rotate(-120.39)">4</text><text class="cls-7" transform="translate(35.29 214.02) rotate(-117.6)"> </text><text class="cls-7" transform="matrix(-0.43, -0.9, 0.9, -0.43, 33.84, 211.25)"> </text><text class="cls-7" transform="translate(32.49 208.45) rotate(-113.88)"> </text><text class="cls-7" transform="translate(31.23 205.6) rotate(-112.02)"> </text><text class="cls-7" transform="translate(30.06 202.72) rotate(-110.15)"> </text><text class="cls-7" transform="translate(28.98 199.79) rotate(-108.29)"> </text><text class="cls-9" transform="matrix(-0.25, -0.97, 0.97, -0.25, 27.93, 196.94)">5</text><text class="cls-9" transform="matrix(-0.18, -0.98, 0.98, -0.18, 25.64, 187.82)"> </text><text class="cls-9" transform="translate(24.79 183.22) rotate(-97.63)"> </text><text class="cls-7" transform="matrix(-0.09, -1, 1, -0.09, 24.19, 178.55)"> </text><text class="cls-7" transform="translate(23.9 175.46) rotate(-93.81)"> </text><text class="cls-7" transform="translate(23.7 172.35) rotate(-91.7)"> </text><text class="cls-7" transform="translate(23.61 169.24) rotate(-89.87)"> </text><text class="cls-7" transform="translate(23.61 166.12) rotate(-88.04)"> </text><text class="cls-7" transform="matrix(0.08, -1, 1, 0.08, 23.68, 163.04)">6</text><text class="cls-7" transform="translate(24.23 156.8) rotate(-82.49)"> </text><text class="cls-7" transform="translate(24.64 153.72) rotate(-80.64)"> </text><text class="cls-7" transform="translate(25.14 150.64) rotate(-78.77)"> </text><text class="cls-7" transform="matrix(0.23, -0.97, 0.97, 0.23, 25.75, 147.59)"> </text><text class="cls-7" transform="translate(26.45 144.55) rotate(-75.05)"> </text><text class="cls-7" transform="translate(27.25 141.55) rotate(-73.19)"> </text><text class="cls-7" transform="translate(28.16 138.55) rotate(-71.31)"> </text><text class="cls-7" transform="translate(29.14 135.62) rotate(-69.47)"> </text><text class="cls-9" transform="matrix(0.41, -0.91, 0.91, 0.41, 30.11, 132.72)">7</text><text class="cls-7" transform="matrix(0.47, -0.88, 0.88, 0.47, 34.08, 124.17)"> </text><text class="cls-7" transform="translate(35.53 121.43) rotate(-60.19)"> </text><text class="cls-7" transform="matrix(0.52, -0.85, 0.85, 0.52, 37.09, 118.72)"> </text><text class="cls-7" transform="translate(38.72 116.06) rotate(-56.49)"> </text><text class="cls-7" transform="matrix(0.58, -0.82, 0.82, 0.58, 40.44, 113.46)"> </text><text class="cls-7" transform="translate(42.19 110.93) rotate(-51.89)">8</text><text class="cls-7" transform="matrix(0.65, -0.76, 0.76, 0.65, 46.08, 106.02)"> </text><text class="cls-7" transform="translate(48.12 103.67) rotate(-47.3)"> </text><text class="cls-7" transform="translate(50.22 101.38) rotate(-45.47)"> </text><text class="cls-7" transform="matrix(0.72, -0.69, 0.69, 0.72, 52.41, 99.16)"> </text><text class="cls-7" transform="translate(54.66 97.01) rotate(-41.79)"> </text><text class="cls-7" transform="matrix(0.78, -0.63, 0.63, 0.78, 56.93, 94.93)">9</text><text class="cls-7" transform="matrix(0.81, -0.59, 0.59, 0.81, 61.83, 91)"> </text><text class="cls-7" transform="matrix(0.83, -0.56, 0.56, 0.83, 64.35, 89.15)"> </text><text class="cls-7" transform="translate(66.91 87.39) rotate(-32.55)"> </text><text class="cls-7" transform="translate(69.54 85.71) rotate(-30.7)"> </text><text class="cls-7" transform="matrix(0.88, -0.48, 0.48, 0.88, 72.21, 84.13)"> </text><text class="cls-7" transform="translate(74.9 82.6) rotate(-26.05)">1</text><text class="cls-7" transform="translate(80.49 79.86) rotate(-22.32)">0</text><text class="cls-7" transform="translate(86.3 77.51) rotate(-19.53)"> </text><text class="cls-7" transform="matrix(0.95, -0.3, 0.3, 0.95, 89.24, 76.47)"> </text><text class="cls-7" transform="matrix(0.96, -0.27, 0.27, 0.96, 92.2, 75.53)"> </text><text class="cls-7" transform="translate(95.2 74.68) rotate(-13.95)"> </text><text class="cls-7" transform="matrix(0.98, -0.19, 0.19, 0.98, 98.18, 73.89)">1</text><text class="cls-7" transform="matrix(0.99, -0.14, 0.14, 0.99, 103.49, 72.82)">1</text><text class="cls-7" transform="translate(109.69 71.99) rotate(-5.21)"> </text><text class="cls-7" transform="translate(112.82 71.71) rotate(-3.81)"> </text><text class="cls-7" transform="matrix(1, -0.03, 0.03, 1, 115.89, 71.52)"> </text><text class="cls-7" transform="translate(119.02 71.43) rotate(0.25)"> </text><text class="cls-7" transform="matrix(1, 0.04, -0.04, 1, 122.14, 71.44)"> </text><text class="cls-10" transform="translate(349.63 57.56)">MIDNIGH<tspan class="cls-11" x="69.33" y="0">T</tspan></text><text class="cls-10" transform="translate(91.71 58.41)">MIDNIGH<tspan class="cls-11" x="69.33" y="0">T</tspan></text><text class="cls-10" transform="translate(361.34 288.13)">NOON</text><text class="cls-10" transform="translate(91.71 288.2)">NOON</text><text class="cls-12" transform="translate(200.46 16.3)">WEEKD<tspan class="cls-13" x="70.72" y="0">A</tspan><tspan class="cls-14" x="82.7" y="0">YS</tspan></text><path class="cls-15" d="M358.34,348.16c15.65,0,31.29-.83,46.91.7,12.12,1.19,33.24,3.42,33,19.42,0,2.42,3.72,2.42,3.75,0,.23-16.43-17.45-20.61-30.77-22.46-17.56-2.45-35.26-1.45-52.91-1.41a1.88,1.88,0,0,0,0,3.75Z" transform="translate(-46.42 -336.84)"/><path class="cls-15" d="M240.9,346.41c-17.65,0-35.35-1-52.91,1.41-13.32,1.85-31,6-30.77,22.46,0,2.42,3.78,2.42,3.75,0-.22-16,20.91-18.24,33-19.42,15.62-1.52,31.26-.73,46.91-.7a1.88,1.88,0,0,0,0-3.75Z" transform="translate(-46.42 -336.84)"/><circle class="cls-16" cx="26.22" cy="343.53" r="5.77"/><path class="cls-17" d="M70.77,664v5.61a1.88,1.88,0,0,0,3.75,0V664a1.88,1.88,0,0,0-3.75,0Z" transform="translate(-46.42 -336.84)"/><path class="cls-17" d="M68.75,670.12l-3.06-4.7c-1.31-2-4.56-.14-3.24,1.89L65.51,672c1.31,2,4.56.14,3.24-1.9Z" transform="translate(-46.42 -336.84)"/><path class="cls-17" d="M82.81,692.82l-3.06-4.7c-1.31-2-4.55-.14-3.24,1.89l3.06,4.71c1.31,2,4.56.14,3.24-1.9Z" transform="translate(-46.42 -336.84)"/><path class="cls-17" d="M70.77,691v5.61a1.88,1.88,0,0,0,3.75,0V691a1.88,1.88,0,0,0-3.75,0Z" transform="translate(-46.42 -336.84)"/><path class="cls-17" d="M65.59,688.26l-3.26,4.57a1.88,1.88,0,0,0,3.24,1.9l3.26-4.57a1.88,1.88,0,0,0-3.24-1.9Z" transform="translate(-46.42 -336.84)"/><path class="cls-17" d="M79.13,665.09l-3.25,4.57a1.88,1.88,0,0,0,.67,2.56,1.92,1.92,0,0,0,2.57-.67L82.37,667a1.89,1.89,0,0,0-.67-2.57,1.92,1.92,0,0,0-2.57.68Z" transform="translate(-46.42 -336.84)"/><path class="cls-17" d="M89.23,678H83.62a1.88,1.88,0,0,0,0,3.75h5.61a1.88,1.88,0,0,0,0-3.75Z" transform="translate(-46.42 -336.84)"/><path class="cls-17" d="M61.32,678.85H55.71a1.88,1.88,0,0,0,0,3.75h5.61a1.88,1.88,0,0,0,0-3.75Z" transform="translate(-46.42 -336.84)"/><path class="cls-17" d="M63.77,673l-4.86-2.81c-2.09-1.21-4,2-1.89,3.24l4.86,2.8c2.09,1.21,4-2,1.89-3.23Z" transform="translate(-46.42 -336.84)"/><path class="cls-17" d="M87.37,685.92l-4.86-2.81c-2.09-1.21-4,2-1.89,3.24l4.85,2.81c2.1,1.21,4-2,1.9-3.24Z" transform="translate(-46.42 -336.84)"/><path class="cls-17" d="M85.39,670.21,80.53,673c-2.09,1.2-.21,4.44,1.89,3.23l4.86-2.8c2.09-1.21.2-4.45-1.89-3.24Z" transform="translate(-46.42 -336.84)"/><path class="cls-17" d="M61.88,684.43,57,687.24c-2.09,1.2-.2,4.44,1.89,3.23l4.86-2.8c2.09-1.21.2-4.45-1.89-3.24Z" transform="translate(-46.42 -336.84)"/><circle class="cls-16" cx="336.57" cy="343.79" r="5.93"/><path class="cls-17" d="M381.74,662.83v11.86a1.25,1.25,0,0,0,2.5,0V662.83a1.25,1.25,0,0,0-2.5,0Z" transform="translate(-46.42 -336.84)"/><path class="cls-17" d="M377.77,665.92l3.79,4.56c1,1.24,2.79-.54,1.77-1.77l-3.8-4.56c-1-1.24-2.78.54-1.76,1.77Z" transform="translate(-46.42 -336.84)"/><path class="cls-17" d="M386.41,664.15l-3.79,4.56c-1,1.23.74,3,1.77,1.77l3.79-4.56c1-1.23-.74-3-1.77-1.77Z" transform="translate(-46.42 -336.84)"/><path class="cls-17" d="M369.58,668.91l8.39,8.38a1.25,1.25,0,0,0,1.77-1.76l-8.39-8.39a1.25,1.25,0,0,0-1.77,1.77Z" transform="translate(-46.42 -336.84)"/><path class="cls-17" d="M369,673.9l5.9.55c1.61.14,1.6-2.36,0-2.5l-5.9-.55c-1.6-.15-1.59,2.36,0,2.5Z" transform="translate(-46.42 -336.84)"/><path class="cls-17" d="M373.82,666.54l.55,5.9c.14,1.59,2.65,1.61,2.5,0l-.55-5.9c-.14-1.59-2.64-1.61-2.5,0Z" transform="translate(-46.42 -336.84)"/><path class="cls-17" d="M365.57,681.73h11.86a1.25,1.25,0,0,0,0-2.5H365.57a1.25,1.25,0,0,0,0,2.5Z" transform="translate(-46.42 -336.84)"/><path class="cls-17" d="M368.66,685.71l4.56-3.79c1.24-1-.54-2.79-1.77-1.77l-4.56,3.79c-1.24,1,.54,2.79,1.77,1.77Z" transform="translate(-46.42 -336.84)"/><path class="cls-17" d="M366.89,677.06l4.56,3.79c1.23,1,3-.74,1.77-1.77l-4.56-3.79c-1.23-1-3,.74-1.77,1.77Z" transform="translate(-46.42 -336.84)"/><path class="cls-17" d="M371.64,693.89,380,685.5a1.25,1.25,0,0,0-1.77-1.76l-8.38,8.38a1.25,1.25,0,0,0,1.76,1.77Z" transform="translate(-46.42 -336.84)"/><path class="cls-17" d="M376.64,694.52l.54-5.91c.15-1.6-2.35-1.59-2.5,0l-.54,5.91c-.15,1.6,2.35,1.59,2.5,0Z" transform="translate(-46.42 -336.84)"/><path class="cls-17" d="M369.28,689.65l5.9-.54c1.59-.15,1.6-2.65,0-2.5l-5.9.54c-1.59.15-1.61,2.65,0,2.5Z" transform="translate(-46.42 -336.84)"/><path class="cls-17" d="M384.47,697.91V686.05a1.25,1.25,0,0,0-2.5,0v11.86a1.25,1.25,0,0,0,2.5,0Z" transform="translate(-46.42 -336.84)"/><path class="cls-17" d="M388.44,694.82l-3.79-4.56c-1-1.24-2.79.54-1.76,1.77l3.79,4.56c1,1.23,2.79-.54,1.76-1.77Z" transform="translate(-46.42 -336.84)"/><path class="cls-17" d="M379.8,696.59l3.79-4.56c1-1.23-.74-3-1.77-1.77L378,694.82c-1,1.23.74,3,1.77,1.77Z" transform="translate(-46.42 -336.84)"/><path class="cls-17" d="M395.93,691.83l-8.38-8.39a1.25,1.25,0,0,0-1.77,1.77l8.39,8.39a1.25,1.25,0,0,0,1.76-1.77Z" transform="translate(-46.42 -336.84)"/><path class="cls-17" d="M396.56,686.84l-5.91-.55c-1.6-.15-1.59,2.35,0,2.5l5.91.55c1.6.14,1.59-2.36,0-2.5Z" transform="translate(-46.42 -336.84)"/><path class="cls-17" d="M391.69,694.2l-.54-5.91c-.15-1.58-2.65-1.6-2.5,0l.54,5.91c.15,1.59,2.65,1.6,2.5,0Z" transform="translate(-46.42 -336.84)"/><path class="cls-17" d="M400.64,679H388.78a1.25,1.25,0,0,0,0,2.5h11.86a1.25,1.25,0,0,0,0-2.5Z" transform="translate(-46.42 -336.84)"/><path class="cls-17" d="M397.55,675,393,678.82c-1.23,1,.54,2.79,1.77,1.77l4.56-3.79c1.24-1-.54-2.79-1.77-1.77Z" transform="translate(-46.42 -336.84)"/><path class="cls-17" d="M399.32,683.68l-4.56-3.79c-1.23-1-3,.73-1.77,1.76l4.56,3.79c1.23,1,3-.73,1.77-1.76Z" transform="translate(-46.42 -336.84)"/><path class="cls-17" d="M394.57,667.54l-8.39,8.39A1.25,1.25,0,0,0,388,677.7l8.39-8.39a1.25,1.25,0,0,0-1.77-1.77Z" transform="translate(-46.42 -336.84)"/><path class="cls-17" d="M389.57,666.92l-.54,5.9c-.15,1.6,2.35,1.59,2.5,0l.54-5.9c.15-1.61-2.35-1.6-2.5,0Z" transform="translate(-46.42 -336.84)"/><path class="cls-17" d="M396.94,671.78l-5.91.54c-1.59.15-1.6,2.65,0,2.5l5.91-.54c1.59-.15,1.6-2.65,0-2.5Z" transform="translate(-46.42 -336.84)"/><text class="cls-12" transform="translate(376.01 339.97)">WINTER</text><text class="cls-18" transform="translate(376.01 359.43)">Nov 1 -<tspan class="cls-19" x="45.12" y="0"> </tspan><tspan x="48.24" y="0">Apr 30</tspan></text><text class="cls-12" transform="translate(65.38 339.99)">SUMMER</text><text class="cls-18" transform="translate(65.38 359.45)">May1 - Oct 31</text></svg>